<svg width="138" height="43" viewBox="0 0 138 43" fill="none" xmlns="http://www.w3.org/2000/svg">
<g filter="url(#filter0_d_83_137)">
<path d="M117.888 19.412V19.3681V19.412ZM117.888 19.412V19.3681V19.412ZM118.275 17.3701C118.248 17.5738 118.196 17.773 118.12 17.9629C118 18.2483 117.86 18.5191 117.726 18.8045L117.508 19.1924C117.438 19.3315 117.368 19.4559 117.297 19.5876C116.959 20.2362 116.506 20.8122 115.962 21.2855L115.898 21.3367C116.087 21.4652 116.297 21.557 116.517 21.6075C116.836 21.5052 117.128 21.3289 117.371 21.0918C117.615 20.8547 117.804 20.5631 117.923 20.239H117.86C117.6 20.1731 117.354 20.0487 117.452 19.7047C117.487 19.5803 117.726 19.5217 117.895 19.4339C117.937 19.1924 117.979 18.9582 118.029 18.7021C118.007 18.2922 118.317 17.7873 118.261 17.3701H118.275ZM117.888 19.4412V19.3973V19.4412Z" fill="#02171C"/>
<path d="M133.003 31.1803C134.409 29.6215 134.213 28.253 133.137 26.7893C131.372 24.4181 128.884 23.5545 126.212 23.0715C125.305 22.9105 124.307 23.0715 123.695 21.9883C125.221 21.0955 126.367 19.7416 127.625 18.4974C128.504 17.5385 129.133 16.3622 129.453 15.0797C129.945 13.5648 129.256 13.0378 128.047 12.789C127.53 12.6896 126.999 12.7 126.485 12.8195C125.972 12.9389 125.487 13.165 125.059 13.4843C124.145 14.121 123.246 14.7723 122.001 15.6798C122.543 11.479 126.079 9.82504 127.738 6.8391C126.437 4.64356 123.731 4.10199 122.817 1.76008C121.622 1.41611 120.708 0.252475 119.372 0.36957L119.161 3.29696C118.606 4.45328 119.351 5.82183 118.634 6.9562C118.377 7.16175 118.141 7.39478 117.931 7.65145C117.72 7.87747 117.484 8.07647 117.228 8.24425C117.04 8.3628 116.822 8.41896 116.602 8.40526C116.323 8.59711 116.06 8.81251 115.815 9.04928C115.646 9.14907 115.452 9.1901 115.259 9.16638C114.933 9.32931 114.64 9.55532 114.395 9.83236C114.197 10.0749 113.959 10.2782 113.692 10.4325C113.507 10.5556 113.293 10.6239 113.073 10.6301C111.801 11.2082 112.033 11.9913 112.834 12.8256C113.954 13.8376 115.218 14.6623 116.581 15.27C117.488 15.7457 118.388 16.2214 118.268 17.3411C118.324 17.7583 118.015 18.2413 118.015 18.6658C118.233 18.6658 118.451 18.6658 118.669 18.6658C118.652 18.8638 118.564 19.0482 118.424 19.1834C118.284 19.3185 118.101 19.3948 117.91 19.3976V20.1953C117.79 20.5194 117.602 20.811 117.358 21.0481C117.114 21.2852 116.822 21.4616 116.504 21.5639C116.283 21.5133 116.074 21.4216 115.885 21.2931C114.873 22.1567 113.874 23.0276 113.642 24.4913C113.396 25.0328 113.185 25.5963 112.904 26.116C112.751 26.3367 112.649 26.592 112.607 26.8612C112.565 27.1304 112.585 27.406 112.664 27.6659C112.744 27.9257 112.881 28.1626 113.064 28.3573C113.247 28.5521 113.472 28.6993 113.72 28.7872C114.838 29.2702 115.47 28.6774 115.934 27.3235C116.575 25.0205 117.765 22.9234 119.393 21.2272C119.393 24.0814 119.217 26.3502 119.442 28.5457C119.639 30.4851 118.571 31.2096 117.186 31.6414C117.488 32.8124 118.219 33.2661 118.767 33.837C119.316 34.4078 120.047 35.0299 120.919 34.62C121.342 34.4066 121.688 34.0557 121.903 33.6201C122.119 33.1846 122.193 32.6879 122.114 32.2049C122.05 30.6241 122.065 29.0507 122.043 27.4699C122.043 26.2184 122.086 24.967 122.1 23.7155C125.699 26.3428 128.764 29.7167 133.003 31.1803ZM121.91 18.3364C122.423 17.2094 123.042 16.258 124.251 15.8994C124.715 15.775 124.87 15.9872 124.792 16.4483C124.499 17.8763 123.691 19.1333 122.536 19.9611C121.706 19.6757 121.502 19.2146 121.91 18.3364Z" fill="#02171C"/>
<path d="M77.816 20.883C78.2838 20.8422 78.7541 20.8422 79.222 20.883C81.4154 21.2269 82.1606 22.9321 80.7475 24.7032C79.5733 26.2173 78.2306 27.5807 76.7474 28.765C73.858 30.9605 72.9933 30.7775 70.2656 27.9233C71.1092 26.0864 73.1761 25.5741 74.3993 23.7518C72.93 22.0393 70.8843 20.722 70.343 18.1751C71.51 16.909 73.3659 16.3821 74.1603 14.5159C73.6963 14.1866 73.2253 13.8426 72.7543 13.5133C69.6751 11.3616 69.879 9.3271 72.5926 6.44362C72.9533 6.14101 73.3418 5.87626 73.7526 5.65322C76.3678 3.79433 76.8599 3.72114 78.3713 4.92137C80.6139 6.73636 81.4997 9.0124 80.2343 11.2299C79.2937 12.8004 78.9246 14.6698 79.1939 16.4992C79.3555 17.8604 78.2729 18.9363 77.7878 20.1584C77.704 20.2401 77.6371 20.3386 77.5912 20.4481C77.5453 20.5576 77.5213 20.6757 77.5207 20.7951C77.4855 20.8464 77.6261 20.883 77.816 20.883Z" fill="#02171C"/>
<path d="M112.389 9.11575L112.263 9.89151C110.969 13.0165 112.748 16.3025 111.743 19.5373C111.321 20.8985 114.337 21.6303 113.479 23.7454C113.339 24.0516 113.114 24.3067 112.832 24.4772C111.3 25.7653 109.824 27.1192 108.235 28.3194C106.477 29.6441 104.755 29.1757 103.356 27.1485C104.263 25.4067 106.055 24.4992 107.272 22.6622C105.655 21.3156 103.567 20.2618 103.236 17.6271C104.298 15.9073 106.526 15.0876 107.201 12.8043C107.018 11.8236 105.992 11.8748 105.373 11.443C102.611 9.52559 102.4 8.06189 104.783 5.71998C105.586 5.04578 106.442 4.44352 107.342 3.91964C107.78 3.72332 108.253 3.62207 108.73 3.62207C109.208 3.62207 109.68 3.72332 110.119 3.91964C110.295 4.01923 110.496 4.0625 110.695 4.04405C111.024 4.2124 111.307 4.46406 111.518 4.7759C111.797 4.99789 112.035 5.27063 112.221 5.58093C112.212 5.81099 112.258 6.03976 112.354 6.24691C112.693 7.16854 112.705 8.18543 112.389 9.11575Z" fill="#02171C"/>
<path d="M92.8756 13.1707C93.7684 12.0291 94.5768 11.1435 95.2166 10.1336C95.7649 9.26268 96.5453 8.34055 95.7509 7.14764C94.9565 5.95473 93.5505 5.68395 91.8562 6.33529C91.5874 6.48389 91.3486 6.68518 91.1532 6.92809C88.0318 8.72843 84.8823 10.4995 82.1898 12.9219C82.4288 13.5806 82.5976 14.027 82.7592 14.4734C83.1318 15.5346 84.7347 15.5053 84.7558 16.8153C84.7769 18.1254 83.4904 18.7913 83.0686 19.9184C82.9491 20.2404 82.5975 20.4673 82.4288 20.782C81.4727 22.575 81.7258 23.2556 83.9614 24.5802C84.2234 24.8004 84.5406 24.9376 84.8753 24.9754C86.7734 24.5876 88.067 23.1312 89.5784 22.0481C91.4794 20.4323 93.7076 19.2863 96.0953 18.6962C96.8335 15.5566 94.387 14.3563 92.8756 13.1707ZM89.0231 17.8326C88.3201 18.1619 87.7858 18.7767 86.914 18.645C86.8949 18.8248 86.8125 18.9909 86.6827 19.1112C86.5528 19.2314 86.3848 19.2974 86.211 19.2963C85.9439 19.3768 85.6908 19.2963 85.7049 18.9963C85.7049 18.8865 85.979 18.784 86.1618 18.6742H86.2181C86.2181 18.4801 86.2921 18.294 86.424 18.1567C86.5558 18.0195 86.7346 17.9424 86.9211 17.9424L88.2427 17.152L91.1743 15.1101C91.6242 15.0443 91.8 15.2711 91.7718 15.7176C91.4063 17.1813 90.0635 17.313 89.0231 17.8619V17.8326Z" fill="#02171C"/>
<path d="M37.6883 15.731C37.5195 16.0311 37.4141 16.5361 37.1821 16.6093C33.5264 17.8388 31.1432 21.154 27.9024 23.0495C26.4612 23.8911 25.5754 24.9523 25.7933 26.7527C25.1747 26.9722 24.8653 26.5843 24.6123 26.0867C24.0499 23.6496 25.3926 22.1713 27.0798 20.9125C29.6107 19.0244 31.8181 16.7264 34.7075 14.9846C32.9921 13.2501 30.6371 13.7331 29.21 12.1304C27.9913 10.6399 26.6086 9.30363 25.0903 8.14911C21.048 5.31686 16.9705 3.65556 12.6541 7.70268C11.7331 8.5809 10.3271 8.83704 9.2304 9.51034C5.89813 11.5815 5.89813 13.9966 9.2304 16.097C10.0248 16.6019 10.9528 16.88 11.6066 17.6192C11.8031 17.9032 11.8954 18.2511 11.8667 18.5999C11.8177 18.6651 11.7564 18.7191 11.6864 18.7584C11.6165 18.7978 11.5395 18.8216 11.4603 18.8285C11.381 18.8354 11.3013 18.8251 11.2261 18.7984C11.1508 18.7716 11.0817 18.729 11.0231 18.6731C10.2825 18.8162 9.51849 18.7459 8.8135 18.4699C8.10852 18.1939 7.48937 17.7226 7.02294 17.1069C6.07816 16.0903 5.06819 15.1416 4 14.2674C4.10216 14.1774 4.18425 14.0653 4.24056 13.9389C4.29687 13.8125 4.32604 13.6748 4.32604 13.5355C4.32604 13.3962 4.29687 13.2585 4.24056 13.1321C4.18425 13.0058 4.10216 12.8937 4 12.8037C5.28651 10.2422 6.10903 7.2343 9.62408 6.85374C10.5322 6.64353 11.3653 6.17185 12.0284 5.4925C16.4011 1.59175 19.1569 2.25042 24.2326 5.02412C26.4401 6.23167 28.5702 7.73195 29.913 10.1031C30.4965 11.1204 31.5721 11.157 32.5914 11.4717C34.588 12.0791 37.0766 12.2035 37.7093 15.0358C37.5336 15.1822 37.4703 15.3358 37.5266 15.4895C37.5828 15.6432 37.632 15.731 37.6883 15.731Z" fill="#02171C"/>
<path d="M94.6874 20.1151C95.6927 21.1031 95.8473 22.135 95.6083 23.6572C95.2498 26.0065 95.5169 28.4508 95.5169 30.7488C95.9032 30.9908 96.3427 31.1252 96.7933 31.1393C97.2439 31.1534 97.6904 31.0467 98.0899 30.8294C99.1234 30.2073 99.8686 31.1075 100.761 31.2026C101.171 31.2713 101.54 31.5024 101.79 31.8474C102.04 32.1925 102.153 32.6248 102.104 33.0542C102.101 33.3012 102.049 33.5449 101.953 33.7706C101.856 33.9962 101.716 34.199 101.542 34.3667C101.368 34.5344 101.163 34.6635 100.939 34.7461C100.715 34.8287 100.478 34.8631 100.241 34.8472C100.124 34.8364 100.007 34.8364 99.8896 34.8472C94.357 35.4473 93.3095 34.4666 93.2673 28.5679C93.2673 26.248 93.2673 23.928 93.2673 21.6081C93.1396 21.4801 93.0464 21.3195 92.9971 21.1422C92.9477 20.965 92.9439 20.7774 92.9861 20.5981C93.3868 19.8297 93.9211 19.5296 94.6874 20.1151Z" fill="#02171C"/>
<path d="M63.3208 26.4171C62.2381 24.4411 61.1485 22.4724 60.0799 20.4891C59.4191 19.2596 59.0043 17.8691 60.2908 16.925C60.8644 16.4964 61.5661 16.2949 62.2696 16.3566C62.9732 16.4183 63.6326 16.7392 64.1292 17.2617C64.312 17.4154 64.4878 17.5764 64.6565 17.73C68.3895 21.1478 67.9255 24.1849 63.3208 26.4171Z" fill="#02171C"/>
<path d="M83.9948 24.6094H84.9087C85.0926 24.7787 85.2205 25.004 85.2743 25.2534C85.3107 25.4981 85.2939 25.7482 85.2251 25.9852C85.1928 26.0283 85.1704 26.0785 85.1597 26.132C85.1489 26.1854 85.15 26.2408 85.1629 26.2937C85.1758 26.3467 85.2001 26.3958 85.234 26.4375C85.2679 26.4792 85.3106 26.5122 85.3586 26.5341L85.5344 26.8049C84.7822 29.403 83.5308 31.7449 82.5044 34.4747C80.4727 32.8793 80.5219 31.4375 81.2671 29.6884C82.0123 27.9393 83.5167 26.5341 83.9948 24.6094Z" fill="#02171C"/>
<path d="M92.4524 22.34C91.1941 24.9747 89.6404 27.463 89.7459 30.6245C89.7977 30.9794 89.7225 31.3417 89.5346 31.6425C89.3466 31.9434 89.059 32.162 88.7265 32.2566C88.1219 32.3663 87.7774 31.7077 87.5454 31.1368C86.969 29.2853 87.3978 27.3678 87.222 25.4797C87.0603 23.7818 88.0657 22.867 89.7669 22.9694C90.4207 22.6694 90.9339 22.0619 91.6862 21.9668C91.8316 21.9714 91.9745 22.0069 92.1063 22.0711C92.2381 22.1353 92.3558 22.2268 92.4524 22.34Z" fill="#02171C"/>
<path d="M87.6575 0.369383L88.3605 0.208377C89.0163 -0.069459 89.7505 -0.069459 90.4063 0.208377L91.1515 0.354746C91.3745 0.584778 91.6091 0.802204 91.8545 1.00609C92.5575 2.57956 93.1761 4.1384 91.2218 5.51427C89.408 4.50432 86.5749 4.60678 86.9193 1.12319C87.117 0.825222 87.3675 0.569358 87.6575 0.369383Z" fill="#02171C"/>
<path d="M25.0906 26.0124C25.1116 26.199 25.1924 26.3727 25.3199 26.5055C25.4475 26.6383 25.6144 26.7224 25.7936 26.7442C25.818 26.9294 25.9 27.1011 26.0269 27.2333C26.1538 27.3654 26.3188 27.4507 26.4966 27.4761C26.9466 27.9591 26.4966 28.4641 26.5318 28.9398L24.3876 30.7328C21.3858 33.265 18.0605 33.4772 14.9321 31.1719C14.3135 30.7109 13.3714 30.6084 13.0762 29.7082C13.163 29.3692 13.3499 29.0672 13.6105 28.8446L14.0885 28.6983C15.4945 28.8373 16.5772 30.0668 18.0113 30.162C20.7038 30.3083 23.2206 30.1034 23.9939 26.6491C24.0014 26.5191 24.0403 26.3932 24.1068 26.2829C24.1734 26.1726 24.2656 26.0816 24.3748 26.0182C24.4841 25.9547 24.6069 25.921 24.732 25.9199C24.8571 25.9189 24.9804 25.9507 25.0906 26.0124Z" fill="#02171C"/>
<path d="M26.4962 28.9772C25.3292 28.5161 26.5876 27.9819 26.4611 27.5135C30.0605 26.1157 32.3242 26.6573 34.6863 29.5554C33.0975 31.0191 32.064 28.7503 30.6721 28.9333C29.2821 29.0323 27.8878 29.0469 26.4962 28.9772Z" fill="#02171C"/>
<path d="M131.245 2.47022C131.681 2.85078 132.271 3.1362 132.51 3.61922C133.108 4.81945 132.391 5.6318 131.519 6.33437C131.355 6.45398 131.17 6.53817 130.974 6.58198C130.779 6.62579 130.577 6.62832 130.38 6.58944C130.183 6.55055 129.996 6.47102 129.83 6.35556C129.663 6.24011 129.52 6.09106 129.41 5.91722C128.665 4.96582 126.928 4.10224 128.475 2.42631L129.269 1.85547C129.419 1.91385 129.584 1.91385 129.733 1.85547C130.162 2.19212 130.774 2.12625 131.245 2.47022Z" fill="#02171C"/>
<path d="M13.8412 28.9492C13.8168 29.1344 13.7349 29.3061 13.608 29.4383C13.481 29.5704 13.3161 29.6557 13.1382 29.6811C10.6707 28.8834 8.21715 28.5394 5.58789 29.7396C6.57914 26.9293 8.61084 26.3731 12.4141 27.5441C12.7515 27.6228 13.0622 27.7949 13.3134 28.0422C13.5647 28.2895 13.747 28.6029 13.8412 28.9492Z" fill="#02171C"/>
<path d="M13.8426 28.948C13.5083 28.848 13.2039 28.6612 12.958 28.4052C12.7121 28.1492 12.5326 27.8323 12.4366 27.4843C12.7153 27.3858 12.9454 27.1769 13.077 26.9029C13.2086 26.6288 13.2311 26.3118 13.1396 26.0206C12.7319 24.2935 12.5139 22.5004 11.7336 20.8977C11.5107 20.5787 11.3906 20.1944 11.3906 19.7999C11.3906 19.4055 11.5107 19.0211 11.7336 18.7021C15.4455 21.1685 16.4086 25.8596 13.8426 28.948Z" fill="#02171C"/>
<path d="M11.7343 18.6807V20.8762C10.6797 20.4225 11.1648 19.4125 11.0312 18.6807H11.7343Z" fill="#02171C"/>
<path d="M4 12.833C4.87876 13.3087 4.89985 13.7844 4 14.2967V12.833Z" fill="#02171C"/>
<path d="M37.6886 15.7319L37.1895 15.3659L37.7027 15.0293C37.7266 15.2632 37.7219 15.4992 37.6886 15.7319Z" fill="#02171C"/>
<path d="M92.5798 21.6444C92.5731 21.5441 92.5863 21.4434 92.6185 21.3486C92.6508 21.2538 92.7015 21.1669 92.7675 21.0935C92.8335 21.02 92.9133 20.9614 93.002 20.9215C93.0906 20.8816 93.1862 20.8611 93.2829 20.8613V21.5932L92.5798 21.6444Z" fill="#02171C"/>
<path d="M91.8125 22.3321C91.8252 22.1282 91.9139 21.9376 92.0597 21.8009C92.2054 21.6642 92.3968 21.5922 92.5928 21.6002L92.4522 22.3321H91.8125Z" fill="#02171C"/>
<path d="M91.8768 6.36383C91.8454 6.53297 91.7577 6.68515 91.6291 6.79359C91.5005 6.90202 91.3393 6.95976 91.1738 6.95662C91.2722 6.58338 91.4339 6.32723 91.8768 6.36383Z" fill="#02171C"/>
<path d="M118.261 17.3557C118.317 17.7729 118.007 18.2559 118.007 18.6804C117.958 18.9219 117.916 19.1561 117.874 19.4122C117.705 19.5 117.466 19.5586 117.431 19.683C117.333 20.027 117.579 20.1514 117.839 20.2172H117.902C117.783 20.5414 117.594 20.833 117.35 21.0701C117.107 21.3071 116.815 21.4835 116.496 21.5858C116.276 21.5353 116.066 21.4435 115.877 21.315C115.174 20.8686 114.696 20.0928 113.768 20.0855C113.248 20.0855 112.981 19.6245 112.918 19.0975C112.814 18.685 112.841 18.2486 112.994 17.8531C113.147 17.4576 113.419 17.1241 113.768 16.902C114.375 16.5436 115.056 16.345 115.754 16.3233C116.451 16.3016 117.142 16.4575 117.768 16.7776C117.894 16.8166 118.007 16.8914 118.094 16.9935C118.181 17.0957 118.238 17.2212 118.261 17.3557Z" fill="#02171C"/>
<path d="M55.2701 16.0965C55.3334 13.2936 54.1383 11.5225 51.6496 10.5565C49.8288 9.82461 49.2242 10.0881 49.0977 11.9762C48.9922 13.6302 49.0977 15.2988 49.0977 17.1943C47.059 17.9262 44.9991 19.2947 42.4964 19.5216C41.0869 19.6672 39.7854 20.3722 38.8619 21.4903C38.1588 22.3099 37.3082 23.1369 38.0464 24.3518C38.6861 25.413 39.5157 26.3424 40.9006 25.8521C41.6036 25.6106 42.166 25.2227 42.7987 25.9106C44.5914 27.8573 47.0168 28.2891 49.2453 28.4501C49.9905 29.6284 49.2453 30.8799 50.0538 31.7727C54.3351 30.1407 55.3404 28.7575 55.3264 24.4908C55.3193 21.6586 55.2139 18.8556 55.2701 16.0965ZM49.4703 26.5034C47.073 26.2765 44.9288 25.9179 43.5509 23.4516C44.957 21.1902 46.9746 20.0339 49.2945 18.4824C49.7264 21.133 49.7856 23.835 49.4703 26.5034Z" fill="#02171C"/>
<path d="M13.8431 28.9471C15.2491 26.6711 14.5461 24.2853 13.6533 22.2141C13.1331 21.0432 12.7535 19.6234 11.7271 18.6866C11.1154 17.6913 10.0539 17.5815 9.11889 17.1571C7.39652 16.374 5.60384 15.1079 5.54057 13.1392C5.48433 11.0461 7.00986 9.26776 8.92205 8.50664C10.852 7.73245 12.6765 6.69912 14.3493 5.43288C15.1044 4.79026 16.0091 4.36658 16.972 4.20466C17.9348 4.04275 18.9217 4.14833 19.8328 4.51075C23.3056 5.83539 26.3426 7.58451 28.7962 10.468C29.9421 11.8146 31.0598 13.1246 33.197 12.927C33.8503 12.903 34.495 13.0879 35.0443 13.4569C35.5935 13.8259 36.021 14.3612 36.2692 14.9908C36.0864 15.3055 35.9669 15.8178 35.7349 15.8763C32.1776 16.7765 30.1881 20.0991 27.2144 21.8628C26.4915 22.2408 25.8992 22.8429 25.5189 23.5861C25.1386 24.3294 24.9892 25.1771 25.0913 26.0124C24.9792 26.0474 24.8726 26.0991 24.7749 26.1661C23.7696 27.0736 25.9982 28.5373 24.325 29.2691C22.7643 30.001 21.3864 31.0549 19.5164 31.1866C17.1754 31.3842 15.5444 30.162 13.8431 28.9471Z" fill="#02171C"/>
</g>
<defs>
<filter id="filter0_d_83_137" x="0" y="0" width="138" height="43" filterUnits="userSpaceOnUse" color-interpolation-filters="sRGB">
<feFlood flood-opacity="0" result="BackgroundImageFix"/>
<feColorMatrix in="SourceAlpha" type="matrix" values="0 0 0 0 0 0 0 0 0 0 0 0 0 0 0 0 0 0 127 0" result="hardAlpha"/>
<feOffset dy="4"/>
<feGaussianBlur stdDeviation="2"/>
<feComposite in2="hardAlpha" operator="out"/>
<feColorMatrix type="matrix" values="0 0 0 0 0 0 0 0 0 0 0 0 0 0 0 0 0 0 0.25 0"/>
<feBlend mode="normal" in2="BackgroundImageFix" result="effect1_dropShadow_83_137"/>
<feBlend mode="normal" in="SourceGraphic" in2="effect1_dropShadow_83_137" result="shape"/>
</filter>
</defs>
</svg>
